<?xml version="1.0" encoding="UTF-8" standalone="no"?>
<!-- Created with Inkscape (http://www.inkscape.org/) -->

<svg
   xmlns:dc="http://purl.org/dc/elements/1.1/"
   xmlns:cc="http://creativecommons.org/ns#"
   xmlns:rdf="http://www.w3.org/1999/02/22-rdf-syntax-ns#"
   xmlns:svg="http://www.w3.org/2000/svg"
   xmlns="http://www.w3.org/2000/svg"
   xmlns:sodipodi="http://sodipodi.sourceforge.net/DTD/sodipodi-0.dtd"
   xmlns:inkscape="http://www.inkscape.org/namespaces/inkscape"
   version="1.1"
   id="svg80"
   width="828"
   height="828"
   viewBox="0 0 828 828"
   sodipodi:docname="isometric2.svg"
   inkscape:version="0.92.3 (2405546, 2018-03-11)">
  <metadata
     id="metadata86">
    <rdf:RDF>
      <cc:Work
         rdf:about="">
        <dc:format>image/svg+xml</dc:format>
        <dc:type
           rdf:resource="http://purl.org/dc/dcmitype/StillImage" />
        <dc:title></dc:title>
      </cc:Work>
    </rdf:RDF>
  </metadata>
  <defs
     id="defs84" />
  <sodipodi:namedview
     pagecolor="#ffffff"
     bordercolor="#666666"
     borderopacity="1"
     objecttolerance="10"
     gridtolerance="10"
     guidetolerance="10"
     inkscape:pageopacity="0"
     inkscape:pageshadow="2"
     inkscape:window-width="1920"
     inkscape:window-height="1016"
     id="namedview82"
     showgrid="false"
     inkscape:zoom="1"
     inkscape:cx="231.5"
     inkscape:cy="414"
     inkscape:window-x="0"
     inkscape:window-y="27"
     inkscape:window-maximized="1"
     inkscape:current-layer="svg80" />
  <path
     style="fill:#000000;stroke-width:1.33333337"
     d="m 131.221,586.97124 c -1.97608,-2.59077 -3.35919,-4.89383 -3.0736,-5.11789 0.2856,-0.22408 66.04767,-38.15775 146.13792,-84.29704 L 419.90399,413.66667 419.95199,260 420,106.33333 h 5.99443 5.99441 l 0.33892,154.09828 0.33891,154.09828 143.55909,82.90172 c 78.95749,45.59595 143.86133,83.20556 144.23075,83.57691 0.36941,0.37136 -0.99691,2.7196 -3.03626,5.21831 l -3.7079,4.54312 -143.53784,-82.88498 C 491.22871,462.29824 426.04913,425 425.33103,425 c -0.7181,0 -65.06135,36.80769 -142.985,81.79487 -77.92366,44.98718 -142.99625,82.49056 -144.60577,83.34086 -2.59935,1.3732 -3.32794,1.01955 -6.51926,-3.16449 z"
     id="path90"
     inkscape:connector-curvature="0"
     inkscape:export-xdpi="96"
     inkscape:export-ydpi="96" />
</svg>
